<svg width="90" height="69" viewBox="0 0 90 69" fill="none" xmlns="http://www.w3.org/2000/svg">
<path opacity="0.64" d="M3.40039 53.5V24.0215H7.72461V28.6621H8.14648C8.76172 27.0801 9.75488 25.8496 11.126 24.9707C12.4971 24.0918 14.1406 23.6523 16.0566 23.6523C17.9902 23.6523 19.5986 24.0918 20.8818 24.9707C22.1826 25.8496 23.1934 27.0801 23.9141 28.6621H24.2305C25.0039 27.1328 26.1377 25.9199 27.6318 25.0234C29.1436 24.1094 30.9453 23.6523 33.0371 23.6523C35.6738 23.6523 37.8359 24.4785 39.5234 26.1309C41.2109 27.7656 42.0547 30.3145 42.0547 33.7773V53.5H37.5195V33.7773C37.5195 31.5977 36.9219 30.042 35.7266 29.1104C34.5312 28.1787 33.125 27.7129 31.5078 27.7129C29.4512 27.7129 27.8516 28.3457 26.709 29.6113C25.584 30.8594 25.0215 32.4238 25.0215 34.3047V53.5H20.3809V33.3027C20.3809 31.6328 19.8447 30.2881 18.7725 29.2686C17.7002 28.2314 16.3027 27.7129 14.5801 27.7129C13.4023 27.7129 12.3037 28.0293 11.2842 28.6621C10.2646 29.2949 9.43848 30.165 8.80566 31.2725C8.19043 32.3799 7.88281 33.6543 7.88281 35.0957V53.5H3.40039ZM60.1953 54.1328C57.3652 54.1328 54.9131 53.5 52.8389 52.2344C50.7822 50.9688 49.2002 49.2021 48.0928 46.9346C46.9854 44.6494 46.4316 42.0039 46.4316 38.998C46.4316 35.9746 46.9766 33.3115 48.0664 31.0088C49.1562 28.7061 50.6855 26.9043 52.6543 25.6035C54.6406 24.3027 56.9609 23.6523 59.6152 23.6523C61.1445 23.6523 62.665 23.9072 64.1768 24.417C65.6885 24.9268 67.0596 25.7529 68.29 26.8955C69.5381 28.0381 70.5312 29.5498 71.2695 31.4307C72.0078 33.3115 72.377 35.623 72.377 38.3652V40.3164H49.6484V36.4141H69.9248L67.8418 37.8906C67.8418 35.9219 67.5342 34.1729 66.9189 32.6436C66.3037 31.1143 65.3809 29.9102 64.1504 29.0312C62.9375 28.1523 61.4258 27.7129 59.6152 27.7129C57.8047 27.7129 56.249 28.1611 54.9482 29.0576C53.665 29.9365 52.6807 31.0879 51.9951 32.5117C51.3096 33.9355 50.9668 35.4648 50.9668 37.0996V39.6836C50.9668 41.916 51.3535 43.8057 52.127 45.3525C52.9004 46.8994 53.9814 48.0771 55.3701 48.8857C56.7588 49.6768 58.3672 50.0723 60.1953 50.0723C61.373 50.0723 62.4453 49.9053 63.4121 49.5713C64.3789 49.2197 65.2139 48.7012 65.917 48.0156C66.6201 47.3125 67.1562 46.4512 67.5254 45.4316L71.9023 46.6973C71.4453 48.1738 70.6719 49.4746 69.582 50.5996C68.5098 51.707 67.1738 52.5771 65.5742 53.21C63.9746 53.8252 62.1816 54.1328 60.1953 54.1328Z" fill="#464C4F"/>
<circle cx="83.9126" cy="20.6289" r="5.53467" fill="#343B3F"/>
</svg>
