<svg width="1000" height="1000" viewBox="0 0 1000 1000" fill="none" xmlns="http://www.w3.org/2000/svg">
<path d="M197 70H801V930H712.34V536.064H711.47C701.671 427.19 610.286 341.87 499 341.87C387.714 341.87 296.329 427.19 286.529 536.064H285.66V930H197V70Z" fill="white"/>
<path d="M36 192L72.0353 314.075H102.526V807.925C87.217 807.925 74.8069 820.346 74.8069 835.669V868.962H69.2636C53.9546 868.962 41.5433 881.384 41.5433 896.706V930H352V896.706C352 881.384 339.59 868.962 324.281 868.962H318.738V835.669C318.738 820.346 306.326 807.925 291.017 807.925H257.755V192H36Z" fill="white"/>
<path d="M717.983 807.925C702.673 807.925 690.262 820.346 690.262 835.669V868.962H684.719C669.41 868.962 657 881.384 657 896.706V930H967.457V896.706C967.457 881.384 955.045 868.962 939.736 868.962H934.193V835.669C934.193 820.346 921.783 807.925 906.474 807.925V314.075H936.965L973 192H751.245V807.925H717.983Z" fill="white"/>
</svg>
